<?xml version="1.0" encoding="UTF-8" standalone="no"?>
<svg
   width="16"
   height="16"
   version="1.1"
   id="svg1"
   sodipodi:docname="transition.svg"
   inkscape:version="1.4.2 (f4327f4, 2025-05-13)"
   xmlns:inkscape="http://www.inkscape.org/namespaces/inkscape"
   xmlns:sodipodi="http://sodipodi.sourceforge.net/DTD/sodipodi-0.dtd"
   xmlns="http://www.w3.org/2000/svg"
   xmlns:svg="http://www.w3.org/2000/svg">
  <defs
     id="defs1" />
  <sodipodi:namedview
     id="namedview1"
     pagecolor="#505050"
     bordercolor="#eeeeee"
     borderopacity="1"
     inkscape:showpageshadow="0"
     inkscape:pageopacity="0"
     inkscape:pagecheckerboard="0"
     inkscape:deskcolor="#505050"
     inkscape:zoom="32"
     inkscape:cx="8.609375"
     inkscape:cy="7.328125"
     inkscape:window-width="3440"
     inkscape:window-height="1377"
     inkscape:window-x="-8"
     inkscape:window-y="-8"
     inkscape:window-maximized="1"
     inkscape:current-layer="g2"
     showgrid="true">
    <inkscape:grid
       id="grid2"
       units="px"
       originx="0"
       originy="0"
       spacingx="0.5"
       spacingy="0.5"
       empcolor="#0099e5"
       empopacity="0.30196078"
       color="#0099e5"
       opacity="0.14901961"
       empspacing="2"
       enabled="true"
       visible="true" />
  </sodipodi:namedview>
  <g
     id="g2"
     transform="matrix(0.72007632,-0.72007632,0.71459023,0.71459023,-3.3060458,6.458376)"
     style="fill:#ffffff;stroke-width:1.9715;stroke-dasharray:none">
    <path
       id="rect3"
       style="fill:#e0e0e0;stroke-width:0.512638"
       d="M 5 1 C 4.005334 1 3.0967674 1.3584897 2.3984375 1.9550781 L 14.044922 13.601563 C 14.64151 12.903233 15 11.994666 15 11 L 15 10.314453 L 5.6855469 1 L 5 1 z M 7.0996094 1 L 15 8.9003907 L 15 5 C 15 2.784 13.216 1 11 1 L 7.0996094 1 z M 1.2382812 3.6347656 C 1.0844992 4.060631 0.99999998 4.5198081 0.99999998 5 L 0.99999999 6.2011719 L 9.7988281 15 L 11 15 C 11.480192 15 11.939369 14.915501 12.365234 14.761719 L 1.2382812 3.6347656 z M 0.99999999 10.455078 L 0.99999999 11 C 0.99999999 11.34901 1.0534969 11.683563 1.1367187 12.005859 L 4.0019531 14.871094 C 4.3213284 14.952703 4.6544979 15 5 15 L 5.5449219 15 L 0.99999999 10.455078 z "
       transform="matrix(0.69437084,0.6997017,-0.69437084,0.6997017,6.7801298,-2.2056908)" />
  </g>
</svg>
